<svg width="20" height="20" viewBox="0 0 20 20" xmlns="http://www.w3.org/2000/svg"><path d="M13.25 2.82a2.78 2.78 0 014.06 3.8l-.13.13-2.26 2.27a5.58 5.58 0 00-1.5.09l1.49-1.5-2.53-2.52-8.03 8.04a1 1 0 00-.22.32l-.04.12-.88 3.21 3.21-.87a1 1 0 00.24-.1l.11-.07.1-.09 2.24-2.24a5.52 5.52 0 00-.1 1.5l-1.43 1.45a2 2 0 01-.73.46l-.16.05-4.06 1.11a.5.5 0 01-.63-.53l.02-.08 1.1-4.06a2 2 0 01.4-.76l.12-.13 9.6-9.6zm3.22.7c-.65-.65-1.7-.69-2.4-.1l-.12.1-.86.87 2.52 2.52.86-.86c.66-.66.7-1.7.11-2.4l-.1-.13zm-4.4 7.92a2 2 0 01-1.44 2.48l-.46.12a4.73 4.73 0 00.01 1.01l.35.09A2 2 0 0112 17.66l-.13.42c.26.2.54.38.84.52l.32-.35a2 2 0 012.91 0l.34.36c.3-.13.57-.3.82-.5l-.15-.55a2 2 0 011.43-2.48l.46-.12a4.73 4.73 0 00-.01-1.01l-.35-.09A2 2 0 0117 11.34l.13-.42c-.26-.2-.54-.38-.84-.52l-.32.35a2 2 0 01-2.91 0l-.34-.36c-.3.13-.57.3-.82.5l.16.55zm2.43 4.06a1 1 0 110-2 1 1 0 010 2z"/></svg>