<svg width="20" height="20" viewBox="0 0 20 20" xmlns="http://www.w3.org/2000/svg"><path d="M11.68 4.38l3.93 3.94-.7.7a5.5 5.5 0 00-5.9 5.9l-1.43 1.44a2 2 0 01-.73.46l-.16.05-4.06 1.11a.5.5 0 01-.63-.53l.02-.08 1.1-4.06a2 2 0 01.4-.76l.12-.13 8.04-8.04zm1.57-1.56a2.78 2.78 0 014.06 3.8l-.13.13-.86.86-3.94-3.93.87-.86zm-1.18 8.62a2 2 0 01-1.44 2.48l-.46.12a4.73 4.73 0 00.01 1.01l.35.09A2 2 0 0112 17.66l-.13.42c.26.2.54.38.84.52l.32-.35a2 2 0 012.91 0l.34.36c.3-.13.57-.3.82-.5l-.15-.55a2 2 0 011.43-2.48l.46-.12a4.73 4.73 0 00-.01-1.01l-.35-.09A2 2 0 0117 11.34l.13-.42c-.26-.2-.54-.38-.84-.52l-.32.35a2 2 0 01-2.91 0l-.34-.36c-.3.13-.57.3-.82.5l.16.55zm2.43 4.06a1 1 0 110-2 1 1 0 010 2z"/></svg>