<svg width="20" height="20" viewBox="0 0 20 20" xmlns="http://www.w3.org/2000/svg"><path d="M5.31 2c-.47 0-.89.31-1.02.77l-2.25 7.87c-.2.68.32 1.36 1.02 1.36h1.27l-1.17 4.68c-.26 1.05 1.04 1.78 1.8 1l8.67-8.86c.65-.68.19-1.82-.76-1.82H10.3l1.26-3.6c.23-.69-.28-1.4-1-1.4H5.3zm-.06 1.05c.01-.03.03-.05.06-.05h5.25c.04 0 .07.04.06.08l-1.5 4.25A.5.5 0 009.6 8h3.3l.03.04v.05l-.01.03-8.68 8.85a.09.09 0 01-.03.03l-.05-.01a.07.07 0 01-.03-.03v-.01-.03l1.33-5.3a.5.5 0 00-.49-.62h-1.9a.06.06 0 01-.07-.08l2.25-7.87zm10.72 6.27a.5.5 0 00-.94 0l-3 8a.5.5 0 00.94.36l1-2.68h3.06l1 2.68a.5.5 0 00.94-.36l-3-8zm-.47 1.6L16.65 14h-2.3l1.15-3.08z"/></svg>