<svg width="20" height="20" viewBox="0 0 20 20" xmlns="http://www.w3.org/2000/svg"><path d="M19 5.5a4.5 4.5 0 11-9 0 4.5 4.5 0 019 0zm-4-2a.5.5 0 00-1 0V5h-1.5a.5.5 0 000 1H14v1.5a.5.5 0 001 0V6h1.5a.5.5 0 000-1H15V3.5zm1 13v-5.7c.35-.1.68-.24 1-.4v6.1c0 .83-.67 1.5-1.5 1.5H13a1.5 1.5 0 01-1.5-1.5V13a.5.5 0 00-.5-.5H9a.5.5 0 00-.5.5v3.5c0 .83-.67 1.5-1.5 1.5H4.5A1.5 1.5 0 013 16.5V9.45c0-.43.18-.84.5-1.12L9 3.39c.17-.15.36-.26.57-.32-.25.5-.42 1.04-.5 1.6l-4.9 4.4a.5.5 0 00-.17.38v7.05c0 .28.22.5.5.5H7a.5.5 0 00.5-.5V13c0-.83.67-1.5 1.5-1.5h2c.83 0 1.5.67 1.5 1.5v3.5c0 .28.22.5.5.5h2.5a.5.5 0 00.5-.5z"/></svg>