<svg width="20" height="20" viewBox="0 0 20 20" xmlns="http://www.w3.org/2000/svg"><path d="M10 2a8 8 0 100 16 8 8 0 000-16zm-7 8c0-1.6.54-3.08 1.45-4.26L7.27 13h-3.6A6.97 6.97 0 013 10zm5.75 6.89l3.8-4.49.24-.29.84-.99 1.78 3.33a6.99 6.99 0 01-6.66 2.44zm-1.07-.28A7.02 7.02 0 014.25 14h5.63l-2.2 2.6zm4.12-4.88A2.5 2.5 0 017.5 10a2.5 2.5 0 114.51 1.49l-.2.24zm-.2-8.55c1.9.45 3.51 1.67 4.46 3.32h-7l2.54-3.32zM17 10c0 1.29-.35 2.5-.95 3.53L12.83 7.5h3.71c.3.78.46 1.62.46 2.5zm-6.53-6.98l-4 5.19L5.2 4.9A6.98 6.98 0 0110.47 3z"/></svg>