<svg width="20" height="20" viewBox="0 0 20 20" xmlns="http://www.w3.org/2000/svg"><path d="M10.9 2.05a8 8 0 10.02 0h-.02zM3.5 10c0-1.2.33-2.33.9-3.29l2.48 6.04H4.11c-.4-.84-.61-1.77-.61-2.75zm5.93 6.48l3.3-3.91c.1-.1.18-.2.26-.3l.6-.7 1.39 2.6a6.49 6.49 0 01-5.55 2.3zm-1.66-.37a6.51 6.51 0 01-2.69-1.86h4.26l-1.57 1.86zm4.04-4.78l-.2.24A2.24 2.24 0 017.76 10a2.25 2.25 0 114.06 1.33zm-.27-7.65a6.5 6.5 0 013.77 2.57H9.56l1.98-2.57zM16.5 10c0 .97-.21 1.9-.6 2.72l-2.65-4.97h2.85c.26.7.4 1.46.4 2.25zM9.78 3.5L6.47 7.81 5.46 5.35A6.48 6.48 0 019.78 3.5z"/></svg>